<svg width="346" height="50" viewBox="0 0 346 50" fill="none" xmlns="http://www.w3.org/2000/svg">
<path opacity="0.1" fill-rule="evenodd" clip-rule="evenodd" d="M3 20.5C3 19.1193 4.11929 18 5.5 18H340.5C341.881 18 343 19.1193 343 20.5C343 21.8807 341.881 23 340.5 23H5.5C4.11929 23 3 21.8807 3 20.5Z" fill="#03684E" stroke="#03684E" stroke-width="5" stroke-linecap="round"/>
<line x1="58.5" y1="14" x2="58.5" y2="27" stroke="white"/>
<line x1="81.5" y1="14" x2="81.5" y2="27" stroke="white"/>
<line x1="104.5" y1="14" x2="104.5" y2="27" stroke="white"/>
<line x1="127.5" y1="14" x2="127.5" y2="27" stroke="white"/>
<line x1="150.5" y1="14" x2="150.5" y2="27" stroke="white"/>
<line x1="173.5" y1="14" x2="173.5" y2="27" stroke="white"/>
<line x1="196.5" y1="14" x2="196.5" y2="27" stroke="white"/>
<line x1="219.5" y1="14" x2="219.5" y2="27" stroke="white"/>
<line x1="242.5" y1="14" x2="242.5" y2="27" stroke="white"/>
<line x1="265.5" y1="14" x2="265.5" y2="27" stroke="white"/>
<line x1="288.5" y1="14" x2="288.5" y2="27" stroke="white"/>
<line x1="311.5" y1="14" x2="311.5" y2="27" stroke="white"/>
<line x1="334.5" y1="14" x2="334.5" y2="27" stroke="white"/>
<line x1="35.5" y1="14" x2="35.5" y2="27" stroke="white"/>
<line x1="12.5" y1="14" x2="12.5" y2="27" stroke="white"/>
<path fill-rule="evenodd" clip-rule="evenodd" d="M3 20.5C3 19.1193 3.64853 18 4.44853 18H198.551C199.351 18 200 19.1193 200 20.5C200 21.8807 199.351 23 198.551 23H4.44853C3.64853 23 3 21.8807 3 20.5Z" fill="#03684E" stroke="#03684E" stroke-width="5" stroke-linecap="round"/>
<g filter="url(#filter0_d)">
<circle cx="198" cy="20" r="12" fill="white"/>
<circle cx="198" cy="20" r="11.5" stroke="#96BAAF"/>
</g>
<defs>
<filter id="filter0_d" x="173" y="0" width="50" height="50" filterUnits="userSpaceOnUse" color-interpolation-filters="sRGB">
<feFlood flood-opacity="0" result="BackgroundImageFix"/>
<feColorMatrix in="SourceAlpha" type="matrix" values="0 0 0 0 0 0 0 0 0 0 0 0 0 0 0 0 0 0 127 0"/>
<feOffset dy="5"/>
<feGaussianBlur stdDeviation="6.5"/>
<feColorMatrix type="matrix" values="0 0 0 0 0.0117647 0 0 0 0 0.407843 0 0 0 0 0.305882 0 0 0 0.2 0"/>
<feBlend mode="normal" in2="BackgroundImageFix" result="effect1_dropShadow"/>
<feBlend mode="normal" in="SourceGraphic" in2="effect1_dropShadow" result="shape"/>
</filter>
</defs>
</svg>
